<mxfile host="app.diagrams.net" agent="Mozilla/5.0 (Windows NT 10.0; Win64; x64) AppleWebKit/537.36 (KHTML, like Gecko) Chrome/136.0.0.0 Safari/537.36" version="27.0.5">
  <diagram name="Страница — 1" id="TbnKLBhB5y9FhPrze-M2">
    <mxGraphModel dx="1895" dy="1022" grid="1" gridSize="10" guides="1" tooltips="1" connect="1" arrows="1" fold="1" page="1" pageScale="1" pageWidth="827" pageHeight="1169" math="0" shadow="0">
      <root>
        <mxCell id="0" />
        <mxCell id="1" parent="0" />
        <mxCell id="OkcX_3l3ihfZ_jZ7anrs-33" style="edgeStyle=orthogonalEdgeStyle;rounded=0;orthogonalLoop=1;jettySize=auto;html=1;exitX=0.5;exitY=1;exitDx=0;exitDy=0;entryX=0.5;entryY=0;entryDx=0;entryDy=0;endArrow=none;startFill=0;" parent="1" source="OkcX_3l3ihfZ_jZ7anrs-1" target="OkcX_3l3ihfZ_jZ7anrs-3" edge="1">
          <mxGeometry relative="1" as="geometry" />
        </mxCell>
        <mxCell id="OkcX_3l3ihfZ_jZ7anrs-1" value="&lt;font style=&quot;font-size: 14px;&quot; face=&quot;Times New Roman&quot;&gt;Frontend&lt;/font&gt;" style="rounded=0;whiteSpace=wrap;html=1;" parent="1" vertex="1">
          <mxGeometry x="353" y="10" width="120" height="60" as="geometry" />
        </mxCell>
        <mxCell id="OkcX_3l3ihfZ_jZ7anrs-25" style="edgeStyle=orthogonalEdgeStyle;rounded=0;orthogonalLoop=1;jettySize=auto;html=1;exitX=0.25;exitY=1;exitDx=0;exitDy=0;entryX=0.5;entryY=0;entryDx=0;entryDy=0;endArrow=none;startFill=0;" parent="1" source="OkcX_3l3ihfZ_jZ7anrs-3" target="OkcX_3l3ihfZ_jZ7anrs-5" edge="1">
          <mxGeometry relative="1" as="geometry">
            <Array as="points">
              <mxPoint x="383" y="169" />
              <mxPoint x="279" y="169" />
            </Array>
          </mxGeometry>
        </mxCell>
        <mxCell id="OkcX_3l3ihfZ_jZ7anrs-26" style="edgeStyle=orthogonalEdgeStyle;rounded=0;orthogonalLoop=1;jettySize=auto;html=1;exitX=0.5;exitY=1;exitDx=0;exitDy=0;entryX=0.5;entryY=0;entryDx=0;entryDy=0;endArrow=none;startFill=0;" parent="1" source="OkcX_3l3ihfZ_jZ7anrs-3" target="OkcX_3l3ihfZ_jZ7anrs-6" edge="1">
          <mxGeometry relative="1" as="geometry" />
        </mxCell>
        <mxCell id="OkcX_3l3ihfZ_jZ7anrs-27" style="edgeStyle=orthogonalEdgeStyle;rounded=0;orthogonalLoop=1;jettySize=auto;html=1;exitX=0.75;exitY=1;exitDx=0;exitDy=0;entryX=0.5;entryY=0;entryDx=0;entryDy=0;endArrow=none;startFill=0;" parent="1" source="OkcX_3l3ihfZ_jZ7anrs-3" target="OkcX_3l3ihfZ_jZ7anrs-7" edge="1">
          <mxGeometry relative="1" as="geometry">
            <Array as="points">
              <mxPoint x="443" y="170" />
              <mxPoint x="549" y="170" />
            </Array>
          </mxGeometry>
        </mxCell>
        <mxCell id="OkcX_3l3ihfZ_jZ7anrs-3" value="Gateway" style="rounded=1;whiteSpace=wrap;html=1;" parent="1" vertex="1">
          <mxGeometry x="353" y="90" width="120" height="60" as="geometry" />
        </mxCell>
        <mxCell id="OkcX_3l3ihfZ_jZ7anrs-5" value="&lt;font style=&quot;font-size: 14px;&quot; face=&quot;Times New Roman&quot;&gt;Auth&lt;/font&gt;" style="rounded=0;whiteSpace=wrap;html=1;" parent="1" vertex="1">
          <mxGeometry x="219" y="189" width="120" height="60" as="geometry" />
        </mxCell>
        <mxCell id="OkcX_3l3ihfZ_jZ7anrs-6" value="&lt;font style=&quot;font-size: 14px;&quot; face=&quot;Times New Roman&quot;&gt;Tasks&lt;/font&gt;" style="rounded=0;whiteSpace=wrap;html=1;" parent="1" vertex="1">
          <mxGeometry x="353" y="189" width="120" height="60" as="geometry" />
        </mxCell>
        <mxCell id="OkcX_3l3ihfZ_jZ7anrs-7" value="&lt;font style=&quot;font-size: 14px;&quot; face=&quot;Times New Roman&quot;&gt;Log&lt;/font&gt;" style="rounded=0;whiteSpace=wrap;html=1;" parent="1" vertex="1">
          <mxGeometry x="489" y="189" width="120" height="60" as="geometry" />
        </mxCell>
        <mxCell id="OkcX_3l3ihfZ_jZ7anrs-17" value="&lt;font style=&quot;font-size: 10px;&quot;&gt;Postgres&lt;br&gt;SQL&lt;/font&gt;" style="shape=cylinder3;whiteSpace=wrap;html=1;boundedLbl=1;backgroundOutline=1;size=15;" parent="1" vertex="1">
          <mxGeometry x="339" y="290" width="60" height="80" as="geometry" />
        </mxCell>
        <mxCell id="OkcX_3l3ihfZ_jZ7anrs-22" value="&lt;font style=&quot;font-size: 10px;&quot;&gt;Cloudinary&lt;br&gt;Storage&lt;/font&gt;" style="ellipse;shape=cloud;whiteSpace=wrap;html=1;" parent="1" vertex="1">
          <mxGeometry x="412" y="300" width="90" height="60" as="geometry" />
        </mxCell>
        <mxCell id="OkcX_3l3ihfZ_jZ7anrs-34" value="" style="endArrow=none;html=1;rounded=0;exitX=0.5;exitY=1;exitDx=0;exitDy=0;entryX=0.5;entryY=1;entryDx=0;entryDy=0;" parent="1" source="OkcX_3l3ihfZ_jZ7anrs-5" target="OkcX_3l3ihfZ_jZ7anrs-7" edge="1">
          <mxGeometry width="50" height="50" relative="1" as="geometry">
            <mxPoint x="379" y="250" as="sourcePoint" />
            <mxPoint x="429" y="200" as="targetPoint" />
            <Array as="points">
              <mxPoint x="279" y="270" />
              <mxPoint x="419" y="270" />
              <mxPoint x="549" y="270" />
            </Array>
          </mxGeometry>
        </mxCell>
        <mxCell id="OkcX_3l3ihfZ_jZ7anrs-35" value="" style="endArrow=none;html=1;rounded=0;exitX=0.5;exitY=1;exitDx=0;exitDy=0;" parent="1" source="OkcX_3l3ihfZ_jZ7anrs-6" edge="1">
          <mxGeometry width="50" height="50" relative="1" as="geometry">
            <mxPoint x="469" y="220" as="sourcePoint" />
            <mxPoint x="413" y="270" as="targetPoint" />
          </mxGeometry>
        </mxCell>
        <mxCell id="OkcX_3l3ihfZ_jZ7anrs-37" value="" style="endArrow=none;html=1;rounded=0;entryX=0.5;entryY=0;entryDx=0;entryDy=0;entryPerimeter=0;startFill=0;" parent="1" target="OkcX_3l3ihfZ_jZ7anrs-17" edge="1">
          <mxGeometry width="50" height="50" relative="1" as="geometry">
            <mxPoint x="369" y="270" as="sourcePoint" />
            <mxPoint x="399" y="260" as="targetPoint" />
          </mxGeometry>
        </mxCell>
        <mxCell id="OkcX_3l3ihfZ_jZ7anrs-39" value="" style="endArrow=none;html=1;rounded=0;entryX=0.524;entryY=0.13;entryDx=0;entryDy=0;entryPerimeter=0;startFill=0;" parent="1" target="OkcX_3l3ihfZ_jZ7anrs-22" edge="1">
          <mxGeometry width="50" height="50" relative="1" as="geometry">
            <mxPoint x="459" y="270" as="sourcePoint" />
            <mxPoint x="469" y="260" as="targetPoint" />
          </mxGeometry>
        </mxCell>
      </root>
    </mxGraphModel>
  </diagram>
</mxfile>
